<?xml version="1.0" encoding="UTF-8" standalone="no"?>
<!-- Created with Inkscape (http://www.inkscape.org/) -->

<svg
   width="90mm"
   height="29mm"
   viewBox="0 0 90 29"
   version="1.1"
   id="svg5"
   inkscape:version="1.1.2 (0a00cf5339, 2022-02-04)"
   sodipodi:docname="label.svg"
   xmlns:inkscape="http://www.inkscape.org/namespaces/inkscape"
   xmlns:sodipodi="http://sodipodi.sourceforge.net/DTD/sodipodi-0.dtd"
   xmlns="http://www.w3.org/2000/svg"
   xmlns:svg="http://www.w3.org/2000/svg">
  <sodipodi:namedview
     id="namedview7"
     pagecolor="#ffffff"
     bordercolor="#666666"
     borderopacity="1.0"
     inkscape:pageshadow="2"
     inkscape:pageopacity="0.0"
     inkscape:pagecheckerboard="0"
     inkscape:document-units="mm"
     showgrid="false"
     width="29mm"
     inkscape:zoom="2"
     inkscape:cx="-54.5"
     inkscape:cy="149"
     inkscape:window-width="1920"
     inkscape:window-height="1023"
     inkscape:window-x="0"
     inkscape:window-y="29"
     inkscape:window-maximized="1"
     inkscape:current-layer="layer1" />
  <defs
     id="defs2" />
  <g
     inkscape:label="Layer 1"
     inkscape:groupmode="layer"
     id="layer1">
    <g
       transform="matrix(0.00580245,0,0,-0.00580245,6.3103275,24.835619)"
       fill="#000000"
       stroke="none"
       id="g93">
      <path
         d="m 2305,3413 c -146,-33 -224,-64 -325,-129 -73,-47 -177,-149 -222,-215 -204,-302 -192,-691 31,-971 104,-131 243,-226 404,-276 l 87,-27 v -147 c 0,-90 4,-149 10,-153 12,-7 19,-3 300,164 l 195,116 455,6 c 502,6 521,9 674,78 202,91 373,285 441,501 40,124 46,293 16,424 -62,269 -262,496 -518,588 -131,47 -140,47 -853,46 -371,0 -684,-2 -695,-5 z m 1277,-393 c 45,-13 95,-68 104,-115 8,-43 -17,-107 -54,-135 -55,-44 -150,-34 -195,20 -66,78 -37,191 58,225 49,17 43,17 87,5 z m -990,-137 3,-138 140,-5 140,-5 v -130 -130 l -140,-5 -140,-5 -5,-140 -5,-140 h -130 -130 l -5,140 -5,140 -140,5 -140,5 v 130 130 l 140,5 140,5 3,125 c 1,69 4,131 7,138 3,9 39,12 134,12 h 130 z m 1309,-157 c 25,-11 60,-64 66,-100 15,-97 -74,-180 -172,-162 -46,9 -102,65 -111,110 -18,97 75,188 171,165 17,-4 37,-10 46,-13 z m -546,-17 c 97,-86 37,-249 -92,-249 -71,0 -143,72 -143,142 0,85 53,137 142,138 50,0 62,-4 93,-31 z m 227,-249 c 44,-13 95,-68 103,-113 9,-44 -19,-111 -56,-138 -89,-63 -207,-12 -225,97 -12,75 50,149 136,163 3,1 22,-4 42,-9 z"
         id="path71" />
      <path
         d="m 577,1058 c -15,-8 -17,-33 -17,-228 0,-121 -4,-220 -9,-220 -5,0 -14,7 -22,16 -45,55 -192,81 -276,49 C 67,604 21,356 168,217 c 58,-53 106,-71 192,-70 109,1 193,54 236,148 24,49 24,54 24,406 0,375 -1,381 -43,357 z M 415,629 c 91,-25 144,-98 145,-199 0,-76 -15,-122 -53,-163 -47,-50 -74,-61 -152,-61 -55,0 -79,5 -112,23 -104,59 -130,243 -47,340 53,61 134,83 219,60 z"
         id="path73" />
      <path
         d="m 4477,1058 c -16,-8 -17,-46 -17,-438 0,-235 3,-435 6,-444 3,-9 17,-16 29,-16 31,0 31,-8 27,492 -3,425 -3,430 -45,406 z"
         id="path75" />
      <path
         d="m 5393,1063 c -18,-7 -18,-670 0,-730 47,-159 227,-234 380,-159 104,50 154,146 145,276 -8,114 -71,195 -174,226 -93,28 -191,14 -248,-37 -19,-16 -39,-29 -45,-29 -8,0 -11,66 -11,224 0,195 -2,225 -16,230 -9,3 -16,6 -17,5 -1,0 -8,-3 -14,-6 z m 372,-458 c 64,-37 89,-89 89,-185 0,-111 -39,-174 -127,-204 -85,-29 -155,-15 -218,41 -66,60 -85,159 -49,256 21,57 66,98 126,117 48,15 131,4 179,-25 z"
         id="path77" />
      <path
         d="M 970,681 C 782,620 719,393 846,234 c 18,-23 55,-52 81,-64 91,-43 231,-24 287,39 27,30 44,26 48,-11 2,-28 7,-33 28,-33 h 25 l 3,150 c 2,118 -1,160 -14,202 -19,62 -70,119 -129,148 -44,20 -164,30 -205,16 z m 206,-81 c 54,-34 78,-90 79,-181 0,-67 -4,-81 -30,-125 -79,-128 -271,-128 -350,0 -26,43 -30,59 -30,120 0,84 22,135 76,178 62,50 181,53 255,8 z"
         id="path79" />
      <path
         d="m 1620,679 c -57,-9 -98,-37 -120,-79 -19,-37 -20,-56 -18,-238 l 3,-197 h 25 25 l 5,201 c 4,180 7,204 24,223 23,26 79,42 116,34 22,-4 31,0 40,16 6,12 9,25 6,30 -8,12 -64,18 -106,10 z"
         id="path81" />
      <path
         d="m 1979,680 c -55,-10 -102,-42 -124,-85 -17,-34 -21,-64 -23,-204 -4,-199 0,-231 32,-231 h 23 l 5,198 c 3,108 9,205 13,214 13,31 56,50 114,52 52,1 56,3 56,26 0,19 -6,25 -30,30 -16,3 -46,3 -66,0 z"
         id="path83" />
      <path
         d="m 2326,676 c -54,-20 -107,-65 -136,-117 -22,-38 -25,-56 -25,-139 0,-104 15,-147 71,-204 59,-59 155,-84 252,-66 66,12 137,56 137,85 0,30 -32,30 -73,1 -45,-31 -129,-43 -189,-27 -54,15 -101,55 -124,106 -16,34 -25,80 -16,87 1,1 108,5 237,8 l 235,5 -3,40 c -7,93 -40,150 -116,197 -43,26 -63,31 -131,34 -54,3 -93,0 -119,-10 z m 170,-51 c 54,-16 106,-62 123,-108 23,-59 29,-57 -189,-57 -195,0 -200,1 -200,20 0,33 37,96 69,119 54,39 124,48 197,26 z"
         id="path85" />
      <path
         d="m 3010,681 c -87,-28 -141,-88 -160,-174 -6,-30 -10,-114 -8,-197 l 3,-145 26,-3 27,-3 4,173 c 4,187 10,211 65,262 64,59 202,51 258,-16 41,-48 44,-65 46,-234 0,-87 3,-163 6,-171 3,-7 16,-13 29,-13 28,0 26,-13 24,205 -1,125 -5,157 -21,194 -21,48 -53,82 -102,108 -36,18 -158,27 -197,14 z"
         id="path87" />
      <path
         d="m 3606,675 c -87,-31 -133,-114 -99,-183 26,-52 66,-75 181,-101 118,-26 152,-47 152,-95 0,-61 -55,-96 -151,-96 -50,0 -79,12 -122,49 -55,49 -90,23 -46,-33 36,-46 95,-69 174,-69 128,0 205,56 205,149 0,78 -51,115 -209,154 -105,26 -131,44 -131,93 0,45 32,73 97,87 65,14 120,1 167,-40 41,-36 66,-39 66,-7 0,29 -43,71 -92,91 -46,19 -140,20 -192,1 z"
         id="path89" />
      <path
         d="m 4859,681 c -69,-23 -141,-84 -165,-141 -25,-59 -29,-151 -9,-212 37,-116 126,-181 244,-181 76,0 122,17 174,63 38,33 43,32 49,-20 2,-19 9,-25 28,-25 h 25 l -1,170 c 0,189 -6,213 -67,276 -19,20 -52,44 -73,54 -43,20 -163,30 -205,16 z m 166,-62 c 149,-45 167,-310 27,-392 -41,-24 -138,-33 -185,-18 -107,36 -160,157 -123,284 34,116 146,167 281,126 z"
         id="path91" />
    </g>
    <text
       xml:space="preserve"
       style="font-style:normal;font-weight:normal;font-size:3.88056px;line-height:1.35;font-family:sans-serif;fill:#000000;fill-opacity:1;stroke:none;stroke-width:0.264583"
       x="49.721775"
       y="10.556826"
       id="text2612"><tspan
         sodipodi:role="line"
         style="font-style:normal;font-variant:normal;font-weight:normal;font-stretch:normal;font-size:3.88056px;font-family:'Segoe UI';-inkscape-font-specification:'Segoe UI';stroke-width:0.264583"
         x="49.721775"
         y="10.556826"
         id="tspan2614">RP2040 USB </tspan><tspan
         sodipodi:role="line"
         style="font-style:normal;font-variant:normal;font-weight:normal;font-stretch:normal;font-size:3.88056px;font-family:'Segoe UI';-inkscape-font-specification:'Segoe UI';stroke-width:0.264583"
         x="49.721775"
         y="15.857628"
         id="tspan17528">Mouse Adapter</tspan><tspan
         sodipodi:role="line"
         style="font-style:normal;font-variant:normal;font-weight:normal;font-stretch:normal;font-size:3.88056px;font-family:'Segoe UI';-inkscape-font-specification:'Segoe UI';stroke-width:0.264583"
         x="49.721775"
         y="21.158428"
         id="tspan2616">Rev 3</tspan></text>
    <rect
       id="rect20470"
       width="82.832932"
       height="23.170544"
       x="3.5835342"
       y="2.9147282"
       style="fill:none;stroke:#000000;stroke-width:0.365278;stroke-linejoin:round;stroke-miterlimit:4;stroke-dasharray:none;stroke-opacity:1"
       rx="1.5"
       ry="1.5" />
  </g>
</svg>
